<svg width="50" height="50" viewBox="0 0 50 50" fill="none" xmlns="http://www.w3.org/2000/svg">
<circle cx="25" cy="25" r="25" fill="#5E7897"/>
<circle cx="25" cy="17" r="10" fill="#C4C4C4"/>
<path d="M44.9129 39.2C43.8665 36.334 44.8952 38.9547 43.8665 36.334C42.8379 33.7134 41.3302 31.3322 39.4296 29.3265C37.529 27.3207 35.2726 25.7297 32.7893 24.6442C30.306 23.5587 27.6444 23 24.9564 23C22.2685 23 19.6069 23.5587 17.1236 24.6442C14.6403 25.7297 12.3839 27.3207 10.4833 29.3265C8.58265 31.3322 7.07498 33.7134 6.04636 36.334C5.01774 38.9547 6.3497 35.6 5 39.2C5 39.2 5 40.4 8.07022 43.4C11.1404 46.4 12.6755 47 12.6755 47C12.6755 45.2 13.6581 41.4011 14.241 39.9161C14.8239 38.4311 15.6782 37.0818 16.7552 35.9452C17.8322 34.8087 19.1108 33.9071 20.518 33.292C21.9251 32.6769 23.4333 32.3603 24.9564 32.3603C26.4796 32.3603 27.9878 32.6769 29.3949 33.292C30.8021 33.9071 32.0807 34.8087 33.1577 35.9452C34.2347 37.0818 35.089 38.4311 35.6719 39.9161C36.2548 41.4011 37.2373 44.6 37.2373 46.4C37.2373 48.2 45.9592 42.066 44.9129 39.2Z" fill="#C4C4C4"/>
</svg>
