<svg width="30" height="29" viewBox="0 0 30 29" fill="none" xmlns="http://www.w3.org/2000/svg">
<path d="M14.9951 27.9425C19.2068 27.9425 22.7782 26.6647 25.3004 24.4416C27.8249 22.2163 29.2823 19.0571 29.2823 15.3323C29.2823 11.6302 28.1344 8.09959 25.6381 5.75311C23.1379 3.40289 19.3273 2.27994 14.088 3.30734C10.6948 3.3114 7.32277 4.16195 4.78955 5.95044C2.24126 7.74958 0.551514 10.493 0.551514 14.2353C0.551514 21.6898 6.53892 27.9425 14.9951 27.9425Z" fill="#500404" stroke="white" stroke-width="0.5"/>
<path d="M7.1106 2.17313L7.112 1.92313L7.1121 1.92313L7.1124 1.92313L7.11341 1.92314L7.11699 1.92317L7.13026 1.92331L7.1799 1.92413C7.22277 1.92498 7.28455 1.92656 7.3612 1.92946C7.51436 1.93524 7.72762 1.94631 7.96842 1.96749C8.4436 2.00928 9.05003 2.09227 9.51096 2.26254C10.0365 2.4567 10.4022 2.69941 10.7417 2.96923C10.8739 3.07429 10.9956 3.17751 11.1187 3.28197C11.3216 3.45409 11.5285 3.62956 11.7927 3.82205C12.2905 4.18462 12.9107 4.66724 13.4048 5.05783C13.5276 5.15484 13.6427 5.24631 13.7464 5.32902C13.7118 5.10128 13.6765 4.82626 13.6505 4.52128C13.5782 3.67241 13.5753 2.56766 13.875 1.60301C13.9385 1.39859 14.0919 1.26135 14.254 1.17893C14.4159 1.09659 14.6045 1.05852 14.7838 1.05752C14.9625 1.05651 15.1513 1.09227 15.3111 1.1775C15.4735 1.26419 15.6199 1.41155 15.6629 1.62857C15.8169 2.406 15.8179 3.48424 15.7809 4.36656C16.0726 4.00643 16.4732 3.56583 16.878 3.30496C17.2647 3.05572 17.8047 2.8742 18.2295 2.75646C18.4454 2.6966 18.6384 2.65141 18.7775 2.62114C18.8472 2.606 18.9035 2.59455 18.9427 2.58683L18.9882 2.57806L19.0005 2.57579L19.0038 2.57517L19.0048 2.575L19.0051 2.57495L19.0052 2.57493L19.0495 2.82097M7.1106 2.17313L6.99735 2.39601L6.99738 2.39602L6.99754 2.3961L6.99825 2.39646L7.00124 2.39799L7.01329 2.40414L7.06034 2.42833C7.10141 2.44952 7.16119 2.48053 7.23566 2.51966C7.38464 2.59794 7.59217 2.70855 7.82613 2.83774C8.29629 3.09736 8.86488 3.4275 9.28059 3.71964C9.86605 4.13108 10.2327 4.60153 10.6102 5.08579C10.6609 5.15085 10.7118 5.21616 10.7635 5.28161C11.198 5.83221 11.6766 6.37716 12.5154 6.75128C12.604 6.79076 12.6846 6.83537 12.7679 6.883C12.7796 6.88971 12.7915 6.89657 12.8036 6.90353C12.8741 6.94407 12.9506 6.98802 13.0277 7.02556C13.2197 7.11906 13.4377 7.18437 13.7203 7.14016C13.9266 7.10786 14.1373 6.9902 14.2771 6.90094C14.3513 6.8535 14.4149 6.80792 14.4599 6.77419C14.4604 6.77378 14.461 6.77337 14.4615 6.77296H15.1485L15.1872 6.77707C15.2209 6.78054 15.2695 6.78531 15.3299 6.79059C15.4506 6.80115 15.619 6.81382 15.8104 6.82227C16.1876 6.83893 16.6742 6.84032 17.0591 6.76875C17.6653 6.65604 18.0861 6.4199 18.4774 6.16217C18.5625 6.10618 18.6451 6.05001 18.7273 5.99408C19.026 5.79092 19.3199 5.59102 19.708 5.41519C20.409 5.09755 21.3377 4.75179 22.0956 4.48412C22.4737 4.35063 22.8075 4.23717 23.0468 4.1571C23.1664 4.11708 23.2623 4.08542 23.3283 4.06378L23.4039 4.03908L23.4234 4.03276L23.4282 4.03118L23.4294 4.03079L23.4297 4.0307L23.4298 4.03068L23.3531 3.79275M7.1106 2.17313L7.11193 1.92313C6.99604 1.92251 6.89492 2.00162 6.86763 2.11425C6.84034 2.22689 6.89403 2.34351 6.99735 2.396L7.1106 2.17313ZM19.0495 2.82097L19.2246 2.9994L19.2246 2.99944L19.2244 2.9996L19.2237 3.00025L19.221 3.00289L19.2104 3.01338L19.1691 3.05408C19.133 3.08959 19.0807 3.14129 19.0155 3.20598C18.885 3.33536 18.703 3.5166 18.4971 3.72395C18.0845 4.13931 17.5784 4.65698 17.1977 5.07229C17.1639 5.10917 17.1284 5.14813 17.0919 5.18847C17.6723 4.92006 18.3839 4.60483 18.9629 4.39115C19.0889 4.34469 19.2056 4.30068 19.3167 4.25877C19.8268 4.06643 20.2198 3.91826 20.8466 3.77999C21.336 3.67205 21.965 3.61333 22.463 3.58124C22.7138 3.56508 22.9348 3.55548 23.0932 3.54991C23.1724 3.54713 23.236 3.54535 23.28 3.54426L23.3308 3.54312L23.3442 3.54286L23.3477 3.5428L23.3487 3.54278L23.3489 3.54278L23.349 3.54278L23.3531 3.79275M19.0495 2.82097L19.0053 2.57492C19.1132 2.55551 19.2212 2.60875 19.2716 2.70621C19.3219 2.80366 19.3029 2.92256 19.2246 2.99939L19.0495 2.82097ZM23.3531 3.79275L23.3491 3.54278C23.4729 3.5408 23.5795 3.62976 23.5997 3.75193C23.6199 3.8741 23.5476 3.99266 23.4298 4.03068L23.3531 3.79275Z" fill="#23581B" stroke="white" stroke-width="0.5" stroke-linejoin="round"/>
</svg>
